<svg xmlns="http://www.w3.org/2000/svg" viewBox="0 0 16 16" id="Eye-Line--Streamline-Mingcute" height="16" width="16">
  <desc>
    Eye Line Streamline Icon: https://streamlinehq.com
  </desc>
  <g fill="none" fill-rule="nonzero">
    <path d="M16 0v16H0V0h16ZM8.395333333333333 15.505333333333333l-0.007333333333333332 0.0013333333333333333 -0.047333333333333324 0.023333333333333334 -0.013333333333333332 0.0026666666666666666 -0.009333333333333332 -0.0026666666666666666 -0.047333333333333324 -0.023333333333333334c-0.006666666666666666 -0.0026666666666666666 -0.012666666666666666 -0.0006666666666666666 -0.016 0.003333333333333333l-0.0026666666666666666 0.006666666666666666 -0.011333333333333334 0.2853333333333333 0.003333333333333333 0.013333333333333332 0.006666666666666666 0.008666666666666666 0.06933333333333333 0.049333333333333326 0.009999999999999998 0.0026666666666666666 0.008 -0.0026666666666666666 0.06933333333333333 -0.049333333333333326 0.008 -0.010666666666666666 0.0026666666666666666 -0.011333333333333334 -0.011333333333333334 -0.2846666666666666c-0.0013333333333333333 -0.006666666666666666 -0.005999999999999999 -0.011333333333333334 -0.011333333333333334 -0.011999999999999999Zm0.17666666666666667 -0.07533333333333334 -0.008666666666666666 0.0013333333333333333 -0.12333333333333332 0.062 -0.006666666666666666 0.006666666666666666 -0.002 0.007333333333333332 0.011999999999999999 0.2866666666666666 0.003333333333333333 0.008 0.005333333333333333 0.004666666666666666 0.134 0.062c0.008 0.0026666666666666666 0.015333333333333332 0 0.019333333333333334 -0.005333333333333333l0.0026666666666666666 -0.009333333333333332 -0.02266666666666667 -0.4093333333333333c-0.002 -0.008 -0.006666666666666666 -0.013333333333333332 -0.013333333333333332 -0.014666666666666665Zm-0.4766666666666666 0.0013333333333333333a0.015333333333333332 0.015333333333333332 0 0 0 -0.018 0.004l-0.004 0.009333333333333332 -0.02266666666666667 0.4093333333333333c0 0.008 0.004666666666666666 0.013333333333333332 0.011333333333333334 0.016l0.009999999999999998 -0.0013333333333333333 0.134 -0.062 0.006666666666666666 -0.005333333333333333 0.0026666666666666666 -0.007333333333333332 0.011333333333333334 -0.2866666666666666 -0.002 -0.008 -0.006666666666666666 -0.006666666666666666 -0.12266666666666666 -0.06133333333333333Z" stroke-width="0.6667"></path>
    <path fill="#000000" d="M8 2.6666666666666665c1.8579999999999999 0 3.5086666666666666 0.8379999999999999 4.683999999999999 1.8753333333333333 0.59 0.5206666666666666 1.076 1.1053333333333333 1.4186666666666667 1.6873333333333334 0.33666666666666667 0.5713333333333332 0.564 1.1906666666666665 0.564 1.7706666666666666 0 0.58 -0.22666666666666668 1.1993333333333331 -0.564 1.7706666666666666 -0.3426666666666667 0.582 -0.8286666666666667 1.1666666666666665 -1.4186666666666667 1.6873333333333334C11.508666666666667 12.495333333333331 9.857333333333333 13.333333333333332 8 13.333333333333332c-1.8579999999999999 0 -3.5086666666666666 -0.8379999999999999 -4.683999999999999 -1.8753333333333333 -0.59 -0.5206666666666666 -1.076 -1.1053333333333333 -1.4186666666666667 -1.6873333333333334C1.5599999999999998 9.199333333333332 1.3333333333333333 8.579999999999998 1.3333333333333333 8c0 -0.58 0.22666666666666668 -1.1993333333333331 0.564 -1.7706666666666666 0.3426666666666667 -0.582 0.8286666666666667 -1.1666666666666665 1.4186666666666667 -1.6873333333333334C4.491333333333333 3.504666666666666 6.142666666666667 2.6666666666666665 8 2.6666666666666665Zm0 1.3333333333333333c-1.456 0 -2.8053333333333335 0.6619999999999999 -3.801333333333333 1.5413333333333332 -0.496 0.43733333333333335 -0.888 0.9153333333333333 -1.1526666666666667 1.3646666666666667C2.775333333333333 7.366 2.6666666666666665 7.746666666666666 2.6666666666666665 8c0 0.2533333333333333 0.10866666666666666 0.6339999999999999 0.3793333333333333 1.0939999999999999 0.26466666666666666 0.44933333333333336 0.6566666666666666 0.9266666666666665 1.1526666666666667 1.3646666666666667C5.1946666666666665 11.338000000000001 6.5440000000000005 12 8 12s2.8053333333333335 -0.6619999999999999 3.801333333333333 -1.5413333333333332c0.496 -0.438 0.888 -0.9153333333333333 1.1526666666666667 -1.3646666666666667 0.27066666666666667 -0.45999999999999996 0.3793333333333333 -0.8406666666666666 0.3793333333333333 -1.0939999999999999 0 -0.2533333333333333 -0.10866666666666666 -0.6339999999999999 -0.3793333333333333 -1.0939999999999999 -0.26466666666666666 -0.44933333333333336 -0.6566666666666666 -0.9266666666666665 -1.1526666666666667 -1.3646666666666667C10.805333333333332 4.662 9.456 4 8 4Zm0 2c0.05866666666666666 0 0.11666666666666665 0.0026666666666666666 0.174 0.007333333333333332a1.3333333333333333 1.3333333333333333 0 0 0 1.8186666666666667 1.8186666666666667A2 2 0 1 1 8 6Z" stroke-width="0.6667"></path>
  </g>
</svg>