<svg xmlns="http://www.w3.org/2000/svg" fill="none" viewBox="0 0 24 24" id="Auto-Stories-Next-Fill--Streamline-Outlined-Fill-Expansion" height="24" width="24">
  <desc>
    Auto Stories Next Fill Streamline Icon: https://streamlinehq.com
  </desc>
  <g id="auto-stories-next-fill">
    <path id="Union" fill="#000000" fill-rule="evenodd" d="M12 4.97736c-0.54 -0.24797 -1.0942 -0.44876 -1.6625 -0.60236C9.4125 4.125 8.46667 4 7.5 4c-0.86667 0 -1.71667 0.1 -2.55 0.3 -0.83333 0.2 -1.63333 0.5 -2.4 0.9 -0.18333 0.08333 -0.32083 0.20833 -0.4125 0.375C2.04583 5.74167 2 5.91667 2 6.1v12.05c0 0.3833 0.1625 0.675 0.4875 0.875 0.325 0.2 0.6625 0.2083 1.0125 0.025 0.61667 -0.3333 1.2625 -0.5917 1.9375 -0.775C6.1125 18.0917 6.8 18 7.5 18c1 0 1.96667 0.175 2.9 0.525 0.5571 0.2089 1.0904 0.4683 1.6 0.7781 0.5096 -0.3098 1.0429 -0.5692 1.6 -0.7781 0.7769 -0.2913 1.5769 -0.4614 2.4 -0.5103v-2.003c-0.4273 0.0201 -0.8482 0.0662 -1.2625 0.1383 -0.575 0.1 -1.1542 0.2583 -1.7375 0.475v-9.9c0.55 -0.23333 1.1208 -0.4125 1.7125 -0.5375C15.3042 6.0625 15.9 6 16.5 6c0.6167 0 1.2167 0.05833 1.8 0.175 0.5833 0.11667 1.15 0.29167 1.7 0.525V12h2V6.1c0 -0.18333 -0.0458 -0.35833 -0.1375 -0.525 -0.0917 -0.16667 -0.2292 -0.29167 -0.4125 -0.375 -0.7667 -0.4 -1.5667 -0.7 -2.4 -0.9 -0.8333 -0.2 -1.6833 -0.3 -2.55 -0.3 -0.9667 0 -1.9125 0.125 -2.8375 0.375 -0.5683 0.1536 -1.1225 0.35439 -1.6625 0.60236ZM17 21l1.5 1.5L23 18l-4.5 -4.5L17 15l3 3 -3 3Z" clip-rule="evenodd" stroke-width="1"></path>
  </g>
</svg>